<svg width="18" height="18" viewBox="0 0 18 18" fill="none" xmlns="http://www.w3.org/2000/svg">
<path d="M16.875 3.375H15.375V2.25C15.375 2.04262 15.2074 1.875 15 1.875H13.5C13.2926 1.875 13.125 2.04262 13.125 2.25V3.375H4.87498V2.25C4.87498 2.04262 4.70736 1.875 4.49998 1.875H2.99998C2.79261 1.875 2.62498 2.04262 2.62498 2.25V3.375H1.12498C0.917608 3.375 0.749983 3.54262 0.749983 3.75C0.752608 5.17087 0.748108 14.124 0.749983 15.75C0.749983 15.9574 0.917608 16.125 1.12498 16.125H14.625C16.0721 16.125 17.25 14.9471 17.25 13.5V6V3.75C17.25 3.54262 17.0824 3.375 16.875 3.375ZM13.875 2.625H14.625V3.375H13.875V2.625ZM3.37498 2.625H4.12498V3.375H3.37498V2.625ZM1.49998 4.125H16.5V5.625H1.49998V4.125ZM14.625 15.375C12.147 15.2962 12.1477 11.7034 14.625 11.625C17.103 11.7037 17.1022 15.2966 14.625 15.375ZM14.625 10.875C12.2974 10.8442 11.118 13.7977 12.7916 15.375H1.49998V6.375H16.5V11.6666C16.023 11.1787 15.3592 10.875 14.625 10.875Z" fill="#B52804"/>
<path d="M15.375 13.125H15V12.75C15 12.5426 14.8324 12.375 14.625 12.375C14.4176 12.375 14.25 12.5426 14.25 12.75V13.5C14.25 13.7074 14.4176 13.875 14.625 13.875H15.375C15.8651 13.8731 15.8655 13.1269 15.375 13.125Z" fill="#B52804"/>
<path d="M7.87501 7.875H7.125C6.91763 7.875 6.75 8.04263 6.75 8.25C6.75 8.45738 6.91763 8.62501 7.125 8.62501H7.87501C8.36514 8.62313 8.36551 7.87688 7.87501 7.875Z" fill="#B52804"/>
<path d="M4.875 7.875H4.125C3.91762 7.875 3.75 8.04263 3.75 8.25C3.75 8.45738 3.91762 8.62501 4.125 8.62501H4.875C5.36512 8.62313 5.3655 7.87688 4.875 7.875Z" fill="#B52804"/>
<path d="M10.875 7.875H10.125C9.91763 7.875 9.75 8.04263 9.75 8.25C9.75 8.45738 9.91763 8.62501 10.125 8.62501H10.875C11.3651 8.62313 11.3655 7.87688 10.875 7.875Z" fill="#B52804"/>
<path d="M13.875 7.875H13.125C12.9176 7.875 12.75 8.04263 12.75 8.25C12.75 8.45738 12.9176 8.62501 13.125 8.62501H13.875C14.3651 8.62313 14.3655 7.87688 13.875 7.875Z" fill="#B52804"/>
<path d="M7.87501 10.125H7.125C6.91763 10.125 6.75 10.2926 6.75 10.5C6.75 10.7074 6.91763 10.875 7.125 10.875H7.87501C8.36514 10.8731 8.36551 10.1269 7.87501 10.125Z" fill="#B52804"/>
<path d="M4.875 10.125H4.125C3.91762 10.125 3.75 10.2926 3.75 10.5C3.75 10.7074 3.91762 10.875 4.125 10.875H4.875C5.36512 10.8731 5.3655 10.1269 4.875 10.125Z" fill="#B52804"/>
<path d="M10.875 10.125H10.125C9.91763 10.125 9.75 10.2926 9.75 10.5C9.75 10.7074 9.91763 10.875 10.125 10.875H10.875C11.3651 10.8731 11.3655 10.1269 10.875 10.125Z" fill="#B52804"/>
<path d="M13.875 10.125H13.125C12.9176 10.125 12.75 10.2926 12.75 10.5C12.75 10.7074 12.9176 10.875 13.125 10.875H13.875C14.3651 10.8731 14.3655 10.1269 13.875 10.125Z" fill="#B52804"/>
<path d="M7.87501 12.375H7.125C6.91763 12.375 6.75 12.5426 6.75 12.75C6.75 12.9574 6.91763 13.125 7.125 13.125H7.87501C8.36514 13.1231 8.36551 12.3769 7.87501 12.375Z" fill="#B52804"/>
<path d="M4.875 12.375H4.125C3.91762 12.375 3.75 12.5426 3.75 12.75C3.75 12.9574 3.91762 13.125 4.125 13.125H4.875C5.36512 13.1231 5.3655 12.3769 4.875 12.375Z" fill="#B52804"/>
<path d="M10.875 12.375H10.125C9.91763 12.375 9.75 12.5426 9.75 12.75C9.75 12.9574 9.91763 13.125 10.125 13.125H10.875C11.3651 13.1231 11.3655 12.3769 10.875 12.375Z" fill="#B52804"/>
</svg>
