<svg width="14" height="14" viewBox="0 0 14 14" fill="none" xmlns="http://www.w3.org/2000/svg">
<path d="M2.5141 14C1.18046 14 0.280732 13.0622 0.0159187 11.4226C-0.0142069 11.211 -0.00148773 10.9955 0.0533218 10.7889C0.10813 10.5823 0.20391 10.3888 0.33497 10.22L0.386021 10.1721L2.32267 8.64099C2.61531 8.42191 2.97433 8.30997 3.33965 8.32391C3.70497 8.33785 4.05442 8.47681 4.32951 8.71755L5.16543 9.50864C6.90746 9.11309 9.40883 6.85465 9.53326 5.18953L8.70691 4.31869C8.47006 4.04227 8.3349 3.69317 8.32387 3.32935C8.31285 2.96553 8.42662 2.60889 8.64629 2.31863L10.1714 0.388751C10.1873 0.367538 10.2067 0.349198 10.2288 0.334523C10.3973 0.2039 10.5903 0.108371 10.7963 0.0535816C11.0024 -0.00120747 11.2173 -0.0141447 11.4284 0.0155344C13.062 0.283485 14 1.18303 14 2.51641C14 5.56205 12.7899 8.48294 10.6359 10.6365C8.48183 12.7901 5.56035 14 2.5141 14ZM11.3263 0.650322C11.2807 0.647157 11.2348 0.647157 11.1891 0.650322C10.9925 0.651066 10.8009 0.712323 10.6404 0.825766L9.1504 2.7078C9.02091 2.87996 8.9533 3.09076 8.95851 3.30611C8.96372 3.52145 9.04145 3.72874 9.17911 3.89444L10.0852 4.8514C10.1403 4.91023 10.1711 4.98773 10.1714 5.06832C10.1714 7.1226 7.20737 9.82125 5.11757 10.1721C5.06903 10.1802 5.0193 10.1768 4.97225 10.1624C4.92521 10.1481 4.88212 10.123 4.84638 10.0892L3.88922 9.19284C3.7247 9.05255 3.51752 8.97208 3.30142 8.96455C3.08532 8.95702 2.87304 9.02287 2.69915 9.15137L0.800789 10.6442C0.657668 10.8422 0.598086 11.0886 0.634881 11.3301C0.791217 12.2551 1.23789 13.362 2.5141 13.362C5.39112 13.362 8.15029 12.2194 10.1846 10.1854C12.219 8.15147 13.3619 5.39284 13.3619 2.51641C13.3619 1.24045 12.2548 0.793867 11.3263 0.650322Z" fill="#B52804"/>
</svg>
